<svg id="Layer_1" data-name="Layer 1" xmlns="http://www.w3.org/2000/svg" viewBox="0 0 120 120"><defs><style>.cls-1{fill:#181616;fill-rule:evenodd;}</style></defs><title>Artboard 1</title><path class="cls-1" d="M60,0C26.87,0,0,27.54,0,61.52c0,27.18,17.19,50.24,41,58.37,3,.57,4.1-1.33,4.1-3,0-1.46-.05-5.33-.08-10.46-16.69,3.71-20.21-8.25-20.21-8.25-2.73-7.11-6.66-9-6.66-9-5.45-3.82.41-3.74.41-3.74,6,.44,9.19,6.34,9.19,6.34,5.35,9.4,14,6.69,17.46,5.11.54-4,2.09-6.68,3.81-8.22C35.73,87.16,21.72,81.88,21.72,58.3a24.14,24.14,0,0,1,6.17-16.5c-.61-1.56-2.67-7.82.59-16.29,0,0,5-1.65,16.5,6.31a55.53,55.53,0,0,1,30,0c11.46-8,16.49-6.31,16.49-6.31,3.27,8.47,1.21,14.73.59,16.29a24,24,0,0,1,6.17,16.5c0,23.64-14,28.84-27.39,30.36C73,90.56,75,94.31,75,100.05c0,8.23-.07,14.86-.07,16.88,0,1.64,1.08,3.56,4.12,3,23.82-8.15,41-31.2,41-58.37C120,27.54,93.13,0,60,0Z"/></svg>